<svg width="1920" height="791" viewBox="0 0 1920 791" fill="none" xmlns="http://www.w3.org/2000/svg">
<g clip-path="url(#clip0_3385_4224)">
<path d="M1242 624L1430 420L1898 791H1453L1242 624Z" fill="#E5C622"/>
<path d="M1339 386C1415.8 386 1478 448.2 1478 525C1478 601.8 1415.8 664 1339 664C1262.2 664 1200 601.8 1200 525C1200 448.2 1262.2 386 1339 386Z" fill="#E5C622"/>
<path d="M-8.69922 322.1L259.201 666.4C279.601 692.6 274.801 730.3 248.701 750.6L-79.5992 1005.9L-384.199 614.3L-8.69922 322.1Z" fill="#E5C622"/>
<path d="M755.846 315.008C751.833 313.424 746.645 314.318 742.516 315.28C742.367 315.324 742.236 315.415 742.143 315.539C742.05 315.663 742 315.815 742 315.97C742 316.125 742.05 316.276 742.143 316.401C742.236 316.525 742.367 316.616 742.516 316.66C746.83 317.485 751.931 318.136 756.021 316.32C756.652 316.048 756.351 315.212 755.846 315.008Z" fill="#F6D10E"/>
<path d="M855.44 309.189C860.949 301.942 865.088 293.47 860.716 284.502C855.596 274 843.18 270.512 832.629 274.019C831.22 274.291 829.85 274.67 828.742 274.991C825.524 275.928 822.479 277.382 819.727 279.295C815.232 282.364 811.667 286.609 809.418 291.565C807.271 285.542 805.241 279.295 800.752 275.389L800.49 275.049C798.971 273.341 797.049 272.04 794.9 271.263C792.75 270.486 790.441 270.258 788.181 270.6C779.349 271.824 769.974 279.207 769.449 288.573C769.449 289.088 770.265 289.214 770.362 288.699C771.684 281.899 776.794 276.38 783.119 273.738C780.309 275.448 777.919 277.766 776.123 280.522C774.327 283.277 773.172 286.4 772.743 289.661C771.188 303.263 780.301 316.699 787.918 327.192C791.896 332.666 796.246 337.86 800.937 342.737C803.056 345.16 804.852 347.848 806.28 350.732C805.659 350.13 805.037 349.547 804.434 348.935C802.491 346.992 800.655 345.049 798.848 342.98C795.099 338.775 791.58 334.371 788.307 329.786C782.01 320.906 776.456 311.522 771.703 301.728C771.557 301.446 771.072 301.65 771.188 301.951C775.168 312.293 780.447 322.087 786.898 331.098C790.032 335.476 793.389 339.692 796.954 343.728C800.432 347.682 804.221 352.472 808.69 355.318C808.761 355.363 808.841 355.394 808.925 355.407C809.008 355.42 809.094 355.417 809.176 355.396C809.994 356.554 810.925 357.627 811.954 358.602C812.991 357.598 814.011 356.594 815.015 355.59C818.481 352.832 821.786 349.876 824.915 346.739C828.84 342.989 832.632 339.103 836.291 335.081C839.847 331.195 843.277 327.179 846.58 323.034C849.835 318.963 853.711 314.717 855.868 309.957C855.904 309.879 855.921 309.794 855.917 309.708C855.914 309.623 855.891 309.539 855.849 309.465C855.807 309.39 855.749 309.326 855.678 309.278C855.607 309.23 855.525 309.2 855.44 309.189ZM820.786 280.383C821.899 279.657 823.061 279.008 824.264 278.44C818.318 282.87 814.121 289.244 811.167 296.151C810.74 295.18 810.341 294.082 809.943 293.013C812.441 287.96 816.169 283.617 820.786 280.383ZM810.983 317.185C811.566 318.778 813.985 319.031 814.471 317.185C816.21 310.491 818.94 304.555 823.642 299.629C823.156 300.346 822.734 301.103 822.379 301.893C822.363 301.944 822.364 301.999 822.384 302.049C822.404 302.099 822.44 302.141 822.487 302.167C822.534 302.193 822.588 302.203 822.641 302.193C822.694 302.184 822.742 302.157 822.777 302.116C825.935 297.997 830.287 293.645 835.835 293.479C839.157 293.382 841.751 295.423 841.771 298.93C841.771 301.844 840.129 304.128 839.293 306.77C839.28 306.831 839.28 306.894 839.293 306.955C838.992 307.353 838.691 307.751 838.409 308.14C837.661 309.112 836.884 310.151 836.126 311.162C834.339 312.813 832.901 315.048 831.268 316.806C829.491 318.749 827.635 320.634 825.721 322.451C821.835 326.123 817.473 329.154 813.489 332.671C810.963 330.097 807.796 328.125 805.27 325.492C802.542 322.646 800.122 319.52 798.051 316.165C795.759 312.434 785.752 293.577 794.777 292.751C794.919 292.751 795.055 292.694 795.155 292.594C795.255 292.494 795.312 292.358 795.312 292.216C795.312 292.075 795.255 291.939 795.155 291.839C795.055 291.738 794.919 291.682 794.777 291.682C794.185 291.616 793.585 291.662 793.009 291.818C797.206 288.748 800.898 293.421 802.725 297.103C805.816 303.653 808.572 310.356 810.983 317.185ZM833.629 292.343L833.999 292.148C839.08 289.807 847.707 289.428 844.996 297.628C844.507 299.046 843.855 300.402 843.053 301.67C844.025 297.511 843.005 293.091 838.03 292.168C836.568 291.912 835.067 291.972 833.629 292.343ZM820.912 328.785C818.58 331.195 816.216 333.569 813.82 335.907C812.808 334.882 811.691 333.967 810.487 333.177C810.4 333.113 810.301 333.068 810.195 333.045C810.09 333.022 809.981 333.02 809.875 333.041C808.651 331.745 807.44 330.417 806.242 329.057C806.552 329.349 806.844 329.65 807.165 329.932C808.826 331.408 810.711 333.216 812.77 334.1C812.869 334.145 812.976 334.17 813.084 334.173C813.193 334.176 813.301 334.158 813.402 334.119C813.503 334.08 813.596 334.022 813.674 333.947C813.753 333.871 813.815 333.781 813.858 333.682C816.369 332.292 818.732 330.652 820.912 328.785ZM814.16 347.458C808.972 342.086 803.21 337.16 798.45 331.399C791.153 322.655 783.537 312.259 779.922 301.281C778.106 295.772 777.377 289.448 780.467 284.259C783.109 279.81 788.443 276.021 793.757 277.896C799.431 279.897 801.918 285.969 804.026 292.207C803.584 291.547 803.094 290.92 802.559 290.332C797.983 285.416 790.901 286.766 787.753 292.547C783.779 299.882 788.831 309.053 792.397 315.417C796.905 323.67 802.926 331 810.147 337.024C810.526 338.042 811.261 338.888 812.217 339.404C812.307 339.65 812.453 339.871 812.643 340.051C812.832 340.231 813.061 340.365 813.311 340.442C813.562 340.519 813.826 340.538 814.084 340.496C814.343 340.454 814.588 340.353 814.801 340.201L815.549 339.628C816.598 339.197 817.446 338.385 817.919 337.354C825.818 329.793 833.08 321.595 839.633 312.842C843.879 307.207 853.789 296.666 847.454 289.263C841.625 282.462 830.355 289.049 825.06 293.149C819.189 297.7 814.748 303.84 812.265 310.841C811.546 309.063 810.808 307.295 810.079 305.527C810.456 305.766 810.882 305.916 811.326 305.965C811.769 306.014 812.218 305.96 812.638 305.808C813.057 305.656 813.437 305.41 813.746 305.088C814.055 304.766 814.286 304.378 814.422 303.953C817.677 293.654 823.593 283.064 834.484 279.431C844.617 276.06 858.773 282.346 856.529 294.82C854.654 304.992 844.093 313.639 837.554 321.052L814.16 347.458ZM845.356 321.79C842.066 325.922 838.639 329.945 835.077 333.857C833.309 335.8 831.511 337.743 829.685 339.579C836.116 332.079 842.315 324.413 849.048 316.806C847.833 318.497 846.629 320.197 845.356 321.79Z" fill="#F6D10E"/>
<path d="M817.414 368.988C817.191 367.365 814.84 367.666 814.422 368.988C813.45 371.961 813.382 375.274 813.091 378.363C812.848 380.889 811.886 383.784 813.819 385.756C813.999 385.935 814.233 386.049 814.484 386.081C814.736 386.112 814.99 386.06 815.209 385.931C817.434 384.299 817.035 381.521 817.22 378.965C817.453 375.662 817.871 372.271 817.414 368.988Z" fill="#F6D10E"/>
<path d="M789.259 358.533C786.947 358.533 785.179 360.204 783.43 361.448C781.388 362.785 779.461 364.29 777.669 365.946C777.409 366.214 777.254 366.567 777.233 366.939C777.212 367.312 777.325 367.68 777.553 367.976C777.78 368.272 778.107 368.476 778.472 368.551C778.838 368.626 779.218 368.567 779.544 368.385C781.794 367.163 783.939 365.756 785.956 364.178C787.685 362.944 789.561 361.895 790.299 359.796C790.331 359.643 790.328 359.484 790.29 359.331C790.253 359.179 790.182 359.037 790.082 358.916C789.982 358.794 789.856 358.697 789.714 358.631C789.572 358.565 789.416 358.531 789.259 358.533Z" fill="#F6D10E"/>
<path d="M763.726 335.919C760.811 336.483 758.373 338.62 755.954 340.252C753.534 341.885 750.97 343.633 748.657 345.557C747.355 346.645 749.026 348.608 750.425 347.84C753.253 346.305 755.915 344.411 758.586 342.623C760.811 341.117 763.347 339.708 764.824 337.396C764.913 337.226 764.953 337.034 764.938 336.842C764.923 336.65 764.855 336.466 764.74 336.312C764.625 336.157 764.469 336.039 764.29 335.969C764.11 335.9 763.915 335.882 763.726 335.919Z" fill="#F6D10E"/>
<path d="M764.174 278.432C763.203 276.09 760.618 275.196 758.52 274.001C755.654 272.35 752.768 270.708 749.776 269.241C749.496 269.108 749.176 269.085 748.88 269.176C748.584 269.268 748.334 269.468 748.178 269.736C748.023 270.004 747.974 270.321 748.041 270.623C748.109 270.926 748.287 271.192 748.542 271.368C751.126 273.117 753.827 274.72 756.518 276.304C758.597 277.528 760.958 279.656 763.475 279.325C763.892 279.267 764.349 278.937 764.174 278.432Z" fill="#F6D10E"/>
<path d="M783.163 251.983C782.492 249.476 782.541 246.027 780.491 244.259C780.374 244.146 780.233 244.061 780.078 244.01C779.924 243.959 779.76 243.943 779.599 243.964C779.438 243.984 779.284 244.041 779.147 244.129C779.01 244.217 778.895 244.334 778.81 244.473C777.343 246.969 778.81 250.389 779.587 252.974C780.34 256.069 781.686 258.989 783.551 261.572C783.71 261.731 783.912 261.84 784.132 261.885C784.352 261.929 784.581 261.908 784.789 261.822C784.997 261.737 785.175 261.592 785.3 261.406C785.426 261.219 785.493 261 785.494 260.775C785.076 257.754 783.949 254.926 783.163 251.983Z" fill="#F6D10E"/>
<path d="M814.773 243.543C814.722 243.385 814.622 243.247 814.487 243.15C814.353 243.052 814.191 243 814.025 243C813.859 243 813.698 243.052 813.563 243.15C813.429 243.247 813.329 243.385 813.277 243.543C811.208 249.236 811.451 256.503 811.596 262.507C811.596 263.955 814.035 264.45 814.258 262.867C815.094 256.814 816.211 249.537 814.773 243.543Z" fill="#F6D10E"/>
<path d="M851.013 248.993C849.235 250.576 847.991 252.879 846.66 254.822C845.174 256.998 843.746 259.194 842.259 261.389C841.521 262.487 843.231 263.43 844.008 262.361C845.591 260.243 847.185 258.135 848.759 255.997C850.167 254.054 851.829 252.179 852.742 249.954C853.169 248.963 851.702 248.38 851.013 248.993Z" fill="#F6D10E"/>
<path d="M882.034 264.227C879.79 264.499 878.003 265.966 876.157 267.19C873.941 268.657 871.746 270.104 869.579 271.669C869.322 271.843 869.142 272.109 869.073 272.411C869.005 272.714 869.054 273.032 869.211 273.3C869.367 273.567 869.62 273.766 869.918 273.854C870.215 273.943 870.535 273.915 870.813 273.777C873.125 272.475 875.389 271.125 877.614 269.755C879.479 268.618 881.675 267.617 882.851 265.723C882.945 265.576 882.998 265.407 883.004 265.233C883.01 265.058 882.969 264.886 882.886 264.733C882.802 264.58 882.679 264.452 882.529 264.363C882.38 264.274 882.209 264.227 882.034 264.227Z" fill="#F6D10E"/>
<path d="M884.149 293.372C881.944 292.468 879.447 292.74 877.106 292.779C874.736 292.748 872.367 292.907 870.023 293.255C869.806 293.32 869.616 293.453 869.481 293.634C869.346 293.815 869.273 294.035 869.273 294.261C869.273 294.487 869.346 294.707 869.481 294.888C869.616 295.069 869.806 295.202 870.023 295.266C872.367 295.614 874.736 295.774 877.106 295.743C879.447 295.743 881.963 296.053 884.149 295.15C884.322 295.074 884.468 294.949 884.571 294.792C884.674 294.634 884.729 294.449 884.729 294.261C884.729 294.073 884.674 293.888 884.571 293.73C884.468 293.572 884.322 293.448 884.149 293.372Z" fill="#F6D10E"/>
<path d="M892.267 317.641C890.441 315.484 886.963 315.309 884.33 314.726C881.697 314.144 878.705 313.123 875.887 313.541C875.071 313.667 875.168 314.736 875.683 315.125C878.005 316.854 881.289 317.33 884.048 318.039C886.545 318.71 889.382 320.041 891.898 319.011C892.029 318.964 892.147 318.886 892.241 318.783C892.336 318.681 892.404 318.557 892.44 318.422C892.476 318.288 892.48 318.147 892.45 318.011C892.419 317.874 892.357 317.748 892.267 317.641Z" fill="#F6D10E"/>
<path d="M872.421 340.796C871.858 338.794 869.895 337.366 868.438 335.996C866.699 334.364 864.93 332.79 863.114 331.245C862.912 331.054 862.644 330.948 862.366 330.951C862.087 330.954 861.821 331.066 861.624 331.262C861.427 331.458 861.314 331.723 861.309 332.001C861.304 332.279 861.408 332.548 861.598 332.751C863.153 334.568 864.726 336.336 866.359 338.066C867.729 339.523 869.166 341.495 871.158 342.049C871.332 342.095 871.515 342.096 871.689 342.049C871.863 342.003 872.022 341.912 872.15 341.785C872.277 341.658 872.37 341.5 872.417 341.327C872.465 341.153 872.466 340.97 872.421 340.796Z" fill="#F6D10E"/>
<path d="M857.284 366.959C856.468 364.248 853.621 362.402 851.571 360.605C849.3 358.498 846.913 356.519 844.421 354.678C843.206 353.843 842.157 355.592 842.954 356.621C845 359.016 847.186 361.287 849.502 363.422C851.348 365.229 853.388 367.794 855.953 368.377C856.146 368.434 856.352 368.437 856.547 368.384C856.742 368.332 856.918 368.226 857.056 368.078C857.194 367.931 857.289 367.749 857.329 367.551C857.369 367.353 857.354 367.148 857.284 366.959Z" fill="#F6D10E"/>
<path d="M1621.6 140.829C1616.49 142.808 1613.17 146.573 1610.87 151.065C1609.89 151.361 1609.01 151.919 1608.33 152.68C1607.65 153.441 1607.19 154.374 1607 155.379C1604.39 145.89 1599.52 136.856 1592.31 130.345C1588.45 126.858 1583.24 124.55 1578.12 126.527C1572.99 128.504 1569.97 133.921 1568.57 138.947C1564.98 151.985 1570.08 166.854 1576.64 178.08C1580.2 184.049 1584.36 189.634 1589.07 194.75C1589.06 195.256 1589.05 195.749 1589.05 196.264C1589.03 199.514 1592.1 201.098 1594.92 200.915C1596.49 202.474 1598.05 204.034 1599.66 205.545C1599.3 205.742 1599.01 206.056 1598.84 206.438C1598.67 206.819 1598.64 207.246 1598.74 207.649C1598.93 208.395 1599.19 209.118 1599.53 209.809C1599.49 210.111 1599.46 210.4 1599.4 210.688L1598.21 218.256C1598.17 218.492 1598.19 218.733 1598.25 218.963C1598.32 219.192 1598.44 219.404 1598.6 219.581C1598.76 219.759 1598.96 219.898 1599.18 219.989C1599.4 220.079 1599.64 220.118 1599.88 220.104C1602.45 220.152 1610.77 219.555 1612.13 216.758C1613.67 213.596 1608.01 206.715 1606.04 204.451C1611 210.151 1629.02 188.1 1630.82 185.461C1636.86 176.434 1641.86 164.557 1641.07 153.462C1640.37 142.998 1631.47 136.996 1621.6 140.829ZM1616.27 148.541C1617.39 147.208 1618.7 146.058 1620.17 145.13C1619.25 145.787 1618.5 146.66 1618 147.672C1617.38 147.862 1616.8 148.156 1616.27 148.541ZM1577.7 131.866C1577.3 131.599 1576.85 131.426 1576.37 131.359C1577.13 130.665 1578 130.108 1578.95 129.714C1578.52 130.436 1578.1 131.144 1577.7 131.866ZM1584.07 180.711C1584.19 180.737 1584.33 180.748 1584.45 180.762L1584.84 180.798L1585.08 180.788C1585.2 180.746 1585.35 180.8 1585.48 180.791C1585.66 182.521 1585.83 184.254 1586.01 185.992C1584.3 183.83 1582.69 181.624 1581.19 179.346C1582 180.071 1583 180.545 1584.07 180.711ZM1616.73 195.38C1616.83 194.349 1616.96 193.311 1617.01 192.37C1617.29 192.401 1617.57 192.415 1617.85 192.41C1618.78 192.684 1619.76 192.748 1620.73 192.597C1619.37 193.948 1617.94 195.241 1616.46 196.46C1616.58 196.11 1616.67 195.748 1616.73 195.38ZM1625.31 183.887L1625.49 183.823C1626.64 183.849 1627.78 183.517 1628.74 182.87C1627.6 184.608 1626.38 186.276 1625.06 187.874C1625.18 186.524 1625.26 185.205 1625.31 183.887ZM1634.42 167.898C1635.12 167.35 1635.69 166.646 1636.07 165.842C1636.45 165.037 1636.64 164.154 1636.62 163.264C1636.77 163.153 1636.91 163.032 1637.04 162.901C1636.42 165.899 1635.56 168.842 1634.46 171.7C1634.5 170.417 1634.52 169.141 1634.42 167.898ZM1605.79 166.332L1605.56 166.536C1604.85 160.267 1603.34 154.114 1601.08 148.226C1603.61 153.967 1605.21 160.082 1605.79 166.332ZM1591.13 133.623C1593.82 136.322 1596.18 139.344 1598.13 142.621C1597.48 141.998 1596.67 141.562 1595.8 141.359C1594.92 141.157 1594 141.195 1593.15 141.471C1592.81 140.697 1592.25 140.042 1591.54 139.591C1591.06 135.59 1587.6 134.439 1584.84 135.527C1585.15 134.9 1585.47 134.307 1585.81 133.646C1586.15 133.048 1586.31 132.359 1586.24 131.671C1586.18 130.984 1585.91 130.332 1585.46 129.806C1587.59 130.678 1589.52 131.977 1591.13 133.623ZM1571.87 139.148C1572.26 140.721 1572.64 142.295 1573.04 143.865C1571.84 148.862 1571.55 154.033 1572.19 159.133C1571.44 156.004 1570.99 152.813 1570.84 149.601C1570.62 146.084 1570.96 142.554 1571.87 139.148ZM1601.61 216.913L1602.15 213.433C1603.42 214.581 1604.93 215.437 1606.56 215.94C1604.96 216.466 1603.29 216.793 1601.61 216.913ZM1602.78 204.058C1602.09 203.397 1601.42 202.722 1600.74 202.058C1601.34 202.112 1601.94 202.071 1602.53 201.938C1602.49 202.109 1602.48 202.287 1602.51 202.46L1602.78 204.058ZM1638.01 155.01C1636.89 150.845 1634.25 147.251 1630.61 144.936C1629.78 144.359 1628.82 143.994 1627.81 143.872C1626.8 143.75 1625.78 143.875 1624.83 144.237C1623.71 143.883 1622.5 143.952 1621.43 144.431C1621.85 144.209 1622.28 144.008 1622.72 143.83C1626.92 142.155 1632.18 142.348 1635.28 146.043C1637.35 148.536 1638.06 151.73 1638.01 155.01Z" fill="#F6D10E"/>
<path d="M1767.87 346.447C1760.8 351.506 1753.73 357.349 1744.94 359.029C1741.54 359.721 1738.02 359.655 1734.64 358.836C1737.64 356.053 1740.04 352.693 1741.71 348.958C1743.87 343.813 1743.75 337.164 1738.42 333.988C1734.15 331.456 1728.34 332.652 1724.73 335.809C1720.41 339.583 1719.99 345.855 1722.25 350.877C1724.03 354.751 1727.17 357.837 1731.07 359.548C1729.9 360.551 1728.72 361.49 1727.57 362.378C1721.39 367.158 1714.47 370.882 1707.08 373.401C1692.95 378.14 1677.17 377.412 1664.61 368.942C1653.6 361.498 1645.64 348.725 1646.98 335.117C1648.33 321.235 1659.24 304.972 1650.44 291.525C1649.88 290.646 1649.24 289.817 1648.54 289.047C1650.77 274.874 1643.18 260.714 1635 249.7C1624.79 235.956 1611.61 224.072 1605.01 207.936C1603.31 203.826 1602.2 199.499 1601.71 195.082C1601.68 194.986 1601.63 194.902 1601.55 194.844C1601.47 194.786 1601.37 194.758 1601.27 194.766C1601.17 194.775 1601.08 194.818 1601.01 194.888C1600.95 194.959 1600.9 195.052 1600.9 195.15C1602.26 212.6 1614.05 226.469 1624.87 239.288C1635.41 251.838 1647.13 266.407 1647.36 283.608C1647.37 284.962 1647.29 286.315 1647.13 287.66C1644.05 285.001 1640.04 283.383 1635.95 284.048C1630.88 284.862 1627.35 289.668 1627.2 294.689C1627.05 300.011 1631.38 303.749 1636.64 303.183C1642.89 302.519 1646.69 297.114 1648.04 291.401L1648.14 290.968C1649.23 292.266 1650.1 293.728 1650.72 295.299C1653.79 303.408 1651.16 312.305 1648.76 320.215C1646.55 327.488 1644.4 334.863 1645.44 342.542C1646.35 348.691 1648.76 354.521 1652.46 359.517C1656.36 364.839 1661.36 369.25 1667.13 372.446C1672.9 375.641 1679.3 377.544 1685.87 378.023C1700.93 379.064 1715.8 373.39 1727.77 364.496C1729.56 363.165 1731.36 361.752 1733.07 360.234C1734.38 360.693 1735.74 361.018 1737.11 361.203C1744.58 362.048 1751.81 359.391 1758.07 355.51C1761.82 353.142 1765.37 350.482 1768.7 347.554C1768.8 347.433 1768.86 347.279 1768.86 347.119C1768.87 346.96 1768.82 346.803 1768.73 346.674C1768.63 346.546 1768.49 346.453 1768.34 346.412C1768.19 346.371 1768.02 346.383 1767.87 346.447ZM1635.57 301.838C1626.78 301.895 1627.23 290.396 1633.22 286.685C1637.84 283.822 1643.18 286.014 1646.84 289.63C1645.7 295.75 1642.49 301.795 1635.57 301.838ZM1725.12 352.257C1721.31 346.474 1721.96 338.221 1728.94 335.33C1735.59 332.566 1742.32 337.141 1741.11 344.556C1740.23 349.967 1736.68 354.449 1732.63 358.185C1729.56 357.054 1726.93 354.978 1725.12 352.257Z" fill="#F6D10E"/>
<path d="M302.928 163.958C302.717 163.016 302.353 162.114 301.852 161.288C299.925 158.086 296.44 157.189 292.998 157.588C292.943 157.548 292.873 157.531 292.805 157.541C292.166 157.632 291.537 157.779 290.923 157.979C289.744 158.283 288.605 158.721 287.526 159.286L287.169 159.485C285.378 160.249 283.688 161.23 282.137 162.408C280.566 163.606 279.258 165.116 278.297 166.843C277.537 165.693 276.627 164.649 275.592 163.74C274.886 163.086 274.13 162.49 273.33 161.957C272.573 161.46 271.604 160.714 270.674 160.721C270.618 160.721 270.563 160.735 270.516 160.764C270.468 160.793 270.43 160.834 270.405 160.884C269.768 160.625 269.111 160.421 268.44 160.273C263.15 159.128 258.165 162.055 257.126 167.479C256.153 172.559 258.768 177.178 261.907 181.034C261.887 181.019 261.866 181.005 261.843 180.992C261.825 180.98 261.803 180.973 261.78 180.972C261.758 180.972 261.735 180.977 261.716 180.988C261.696 180.998 261.679 181.014 261.668 181.033C261.656 181.053 261.65 181.075 261.65 181.097C261.391 180.841 261.145 180.571 260.915 180.288C259.825 178.921 258.928 177.411 258.249 175.8C256.849 172.486 256.636 169.074 256.881 165.529C256.883 165.475 256.866 165.421 256.832 165.378C256.798 165.335 256.749 165.306 256.695 165.295C256.642 165.285 256.586 165.294 256.538 165.322C256.491 165.349 256.455 165.392 256.436 165.444C255.475 168.901 256.109 172.766 257.44 176.034C258.13 177.724 259.053 179.308 260.184 180.74C261.21 182.039 262.573 183.653 264.149 184.313L264.175 184.307C264.618 184.774 265.065 185.24 265.527 185.689C266.953 187.101 268.451 188.438 270.003 189.704C271.555 190.971 273.222 192.194 274.918 193.32C276.615 194.446 278.392 195.733 280.283 196.432C280.348 196.456 280.417 196.461 280.484 196.447C280.551 196.434 280.614 196.403 280.664 196.357C280.715 196.311 280.752 196.252 280.772 196.186C280.792 196.12 280.793 196.051 280.776 195.984C280.79 196.015 280.811 196.041 280.836 196.063C280.861 196.085 280.891 196.101 280.923 196.11C280.955 196.119 280.988 196.12 281.021 196.115C281.054 196.11 281.085 196.097 281.113 196.079C284.43 193.749 287.463 191.04 290.151 188.007C291.457 186.563 292.697 185.06 293.87 183.497C294.203 183.05 294.553 182.595 294.9 182.128L294.979 182.111C295.963 181.619 296.744 180.638 297.497 179.855C298.332 178.996 299.122 178.093 299.861 177.149C301.357 175.314 302.463 173.193 303.112 170.915C303.701 168.625 303.637 166.215 302.928 163.958ZM289.677 160.738C290.098 160.558 290.549 160.389 291.002 160.248C289.516 161.676 288.124 163.241 286.738 164.722C285.351 166.203 283.946 167.774 282.623 169.361C282.182 169.824 281.749 170.296 281.324 170.778C281.823 166.257 285.536 162.505 289.677 160.738ZM278.729 167.61C279.727 165.765 281.111 164.157 282.786 162.895C281.061 164.687 279.85 166.91 279.279 169.33L278.956 168.839C278.989 168.82 279.016 168.791 279.033 168.756C279.049 168.722 279.055 168.683 279.048 168.645C278.985 168.288 278.88 167.94 278.734 167.609L278.729 167.61ZM272.561 164.671C273.27 165.241 273.929 165.87 274.531 166.552C272.714 167.93 271.041 169.885 269.572 171.342C267.225 173.672 264.804 176.063 262.814 178.732C262.422 178.203 262.044 177.672 261.701 177.13C263.291 175.308 264.924 173.513 266.635 171.808C268.643 169.806 271.493 168.082 273.138 165.799C273.354 165.496 273.086 165.006 272.693 165.167C270.258 166.138 268.118 168.668 266.266 170.49C264.432 172.272 262.719 174.176 261.14 176.187C261.036 175.998 260.931 175.809 260.832 175.619C262.866 173.419 264.738 171.124 266.97 169.08C268.715 167.491 270.787 166.211 272.561 164.671ZM265.567 162.329C264.325 162.641 263.065 163.636 262.14 164.363C261.299 165.008 260.53 165.743 259.846 166.553C260.311 165.386 261.093 164.371 262.104 163.625C263.115 162.878 264.315 162.429 265.567 162.329ZM259.328 168.278C259.389 168.285 259.45 168.279 259.508 168.259C259.566 168.24 259.618 168.208 259.663 168.166C260.752 167.019 261.933 165.961 263.193 165.004C264.268 164.245 265.652 163.821 266.572 162.893C266.611 162.849 266.638 162.797 266.653 162.74C266.667 162.684 266.669 162.625 266.657 162.568C266.645 162.51 266.62 162.457 266.584 162.411C266.547 162.365 266.501 162.329 266.448 162.304C266.985 162.32 267.518 162.383 268.044 162.491C268.392 162.563 268.737 162.655 269.075 162.766C267.318 163.47 265.655 165.143 264.357 166.283C262.483 167.873 260.806 169.682 259.363 171.672C259.143 170.553 259.132 169.402 259.328 168.278ZM260.298 174.501C260.059 173.955 259.851 173.397 259.675 172.828C259.748 172.796 259.813 172.75 259.867 172.691C261.669 170.765 263.393 168.814 265.426 167.109C266.911 165.879 269.186 164.822 270.382 163.285C270.709 163.441 271.02 163.609 271.333 163.81C269.294 165.028 267.447 166.831 265.811 168.369C263.758 170.21 261.91 172.267 260.299 174.505L260.298 174.501ZM263.429 179.516C265.749 177.191 267.895 174.719 270.241 172.426C271.565 171.129 272.914 169.862 274.302 168.625C274.689 168.281 275.08 167.96 275.442 167.632C275.775 168.057 276.084 168.497 276.403 168.944C272.342 172.792 268.385 176.76 264.506 180.795C264.139 180.381 263.77 179.958 263.429 179.52L263.429 179.516ZM265.014 181.358C269.013 177.762 272.944 174.061 276.783 170.274C276.798 170.272 276.813 170.269 276.827 170.264L277.11 170.016C277.159 170.094 277.203 170.171 277.25 170.244C277.251 170.274 277.26 170.302 277.276 170.327C277.291 170.352 277.313 170.372 277.339 170.386C277.508 170.663 277.68 170.934 277.845 171.198C276.17 172.835 274.747 174.994 273.239 176.62C271.155 178.863 268.865 180.942 266.799 183.208C266.198 182.619 265.6 182.001 265.015 181.362L265.014 181.358ZM268.756 185.069L267.618 184.023C267.626 183.999 267.631 183.975 267.635 183.951C269.881 182.041 271.995 179.981 273.962 177.785C275.395 176.262 277.317 174.554 278.708 172.701C278.838 172.926 278.967 173.147 279.092 173.368C277.844 174.875 276.609 176.402 275.322 177.857C273.216 180.26 270.788 182.552 268.757 185.073L268.756 185.069ZM269.776 185.965C272.098 183.911 274.175 181.394 276.214 179.129C277.73 177.433 279.316 175.722 280.823 173.982C281.027 173.849 281.183 173.655 281.271 173.428C282.001 172.535 282.727 171.621 283.398 170.685C283.473 170.689 283.548 170.669 283.613 170.63C283.677 170.59 283.728 170.532 283.759 170.462L284.043 169.76C284.088 169.659 284.108 169.548 284.101 169.438C284.094 169.327 284.06 169.22 284.001 169.126C285.064 167.957 286.135 166.786 287.22 165.639C289.094 163.638 291.229 161.789 293.096 159.752C294.304 159.581 295.535 159.664 296.71 159.997C286.335 166.606 278.392 177.482 272.6 188.194C271.642 187.505 270.71 186.76 269.777 185.97L269.776 185.965ZM276.378 190.855C276.461 190.827 276.534 190.777 276.591 190.71C280.233 186.206 283.592 181.464 287.323 177.011C290.562 173.144 293.995 169.456 297.41 165.767C297.45 165.803 297.497 165.831 297.548 165.848C297.599 165.865 297.654 165.871 297.707 165.866C297.761 165.861 297.813 165.846 297.861 165.82C297.908 165.794 297.949 165.758 297.982 165.715C298.37 165.138 298.714 164.547 299.064 163.941C299.414 163.334 298.478 162.792 298 163.246C293.764 167.421 289.763 171.826 286.014 176.442C282.399 180.816 278.703 185.326 275.744 190.153C275.701 190.218 275.677 190.293 275.674 190.37C274.951 189.879 274.228 189.384 273.523 188.872C277.16 183.754 280.351 178.346 284.305 173.446C288.054 168.796 292.313 164.627 297.302 161.373C297.302 161.471 297.331 161.567 297.387 161.648C297.443 161.729 297.522 161.79 297.614 161.824C297.706 161.858 297.806 161.862 297.901 161.837C297.996 161.812 298.08 161.758 298.143 161.683C298.331 161.46 298.51 161.243 298.684 161.023C300.118 162.19 300.771 164.004 300.792 165.891C300.664 165.802 300.509 165.761 300.354 165.775C300.199 165.789 300.054 165.857 299.945 165.968C295.434 170.163 291.182 174.67 287.03 179.217C283.519 183.059 279.975 186.963 276.815 191.121C276.661 191.044 276.523 190.953 276.379 190.86L276.378 190.855ZM280.844 195.653C280.811 195.68 280.786 195.715 280.773 195.756C280.759 195.796 280.758 195.839 280.768 195.88C280.741 195.825 280.701 195.777 280.652 195.74C280.533 195.655 280.405 195.571 280.282 195.487C280.689 195.44 281.085 195.324 281.453 195.144L280.844 195.653ZM293.31 182.908C292.119 184.517 290.845 186.069 289.489 187.563C287.92 189.271 286.258 190.906 284.551 192.459C285.375 191.486 286.136 190.477 286.824 189.735C289.496 186.855 292.118 183.939 294.666 180.951C294.205 181.618 293.771 182.283 293.31 182.908ZM290.52 182.324C288.246 184.079 286.271 186.368 284.365 188.454C282.924 190.028 281.472 191.633 280.116 193.305L277.73 191.741C281.202 187.889 284.514 183.887 288.027 180.072C291.632 176.155 295.379 172.387 299.124 168.61C299.197 168.645 299.28 168.654 299.359 168.638C299.439 168.621 299.51 168.579 299.564 168.518C299.974 168.046 300.349 167.558 300.717 167.063C300.651 167.625 300.534 168.179 300.368 168.72C300.314 168.901 300.246 169.076 300.182 169.255C300.162 169.163 300.119 169.078 300.057 169.008C299.995 168.938 299.916 168.884 299.828 168.853C299.74 168.821 299.645 168.813 299.552 168.828C299.46 168.844 299.373 168.882 299.299 168.941C295.536 172.28 292.19 176.189 288.855 179.952C287.197 181.832 285.57 183.732 283.973 185.653C282.397 187.546 280.42 189.495 279.408 191.751C279.372 191.825 279.363 191.909 279.381 191.99C279.399 192.07 279.444 192.142 279.508 192.195C279.571 192.247 279.651 192.276 279.733 192.278C279.816 192.279 279.896 192.253 279.962 192.203C281.736 190.861 283.057 188.848 284.478 187.158C286.194 185.132 287.915 183.133 289.642 181.159C292.978 177.382 296.595 173.848 299.883 170.034C297.988 174.597 293.852 178.676 290.516 182.325L290.52 182.324ZM302.069 171.438C301.34 173.445 300.27 175.312 298.907 176.956C298.199 177.829 297.449 178.665 296.657 179.463L296.635 179.467C296.813 179.139 296.97 178.799 297.105 178.45C297.124 178.397 297.123 178.338 297.103 178.285C297.082 178.232 297.044 178.188 296.994 178.161C299.135 175.553 301.578 172.377 302.625 169.016C302.52 169.84 302.332 170.652 302.065 171.439L302.069 171.438Z" fill="#F6D10E"/>
<path d="M255.17 177.67L255.143 177.675C255.605 177.294 255.23 176.45 254.58 176.417C250.777 176.363 249.016 173.034 247.285 170.222C246.053 168.227 244.669 166.513 242.671 165.267C237.693 162.183 231.299 160.83 225.812 158.927C225.61 158.836 225.385 158.807 225.166 158.842C224.947 158.877 224.743 158.975 224.579 159.125C224.416 159.275 224.299 159.469 224.245 159.684C224.19 159.899 224.2 160.125 224.272 160.335C225.154 162.92 226.637 165.26 228.599 167.161C230.561 169.062 232.946 170.471 235.557 171.272C233.449 172.837 231.679 174.811 230.353 177.077C229.912 177.817 230.675 178.763 231.466 178.679L231.994 178.618L231.827 178.653C231.765 178.669 231.709 178.705 231.668 178.755C231.626 178.805 231.602 178.867 231.598 178.931C231.595 178.996 231.612 179.06 231.647 179.115C231.682 179.169 231.733 179.211 231.794 179.234C233.631 180.004 236.309 179.032 237.982 178.212C238.035 178.19 238.08 178.152 238.109 178.102C238.138 178.053 238.151 177.996 238.145 177.939L238.207 177.926C237.426 179.753 236.84 181.658 236.46 183.609C236.431 183.779 236.44 183.952 236.488 184.117C236.536 184.283 236.621 184.435 236.736 184.562C236.851 184.69 236.994 184.789 237.154 184.853C237.313 184.917 237.485 184.944 237.657 184.932C239.629 184.695 241.526 184.03 243.214 182.982L242.978 186.506C242.913 187.397 243.884 188.281 244.727 187.621C245.015 187.395 245.296 187.162 245.583 186.931C245.594 186.98 245.616 187.026 245.646 187.067C245.676 187.107 245.714 187.141 245.757 187.165C245.801 187.19 245.849 187.206 245.899 187.211C245.949 187.216 246 187.211 246.047 187.196C247.85 186.624 250.425 185.357 251.206 183.462C252.424 184.583 254.286 185.008 255.798 183.794C257.884 182.148 257.328 178.896 255.17 177.67ZM234.676 178.449C234.039 178.537 233.381 178.487 232.741 178.521L236.297 178.121C235.761 178.269 235.215 178.379 234.663 178.451L234.676 178.449ZM248.758 184.831C248.408 185.083 248.043 185.313 247.664 185.52L248.404 184.676C248.432 184.646 248.453 184.61 248.464 184.571C248.476 184.532 248.478 184.491 248.472 184.45C249.149 183.83 249.815 183.198 250.468 182.552C250.588 182.747 250.723 182.932 250.874 183.105C250.099 183.589 249.493 184.309 248.758 184.831ZM254.779 180.722C255.049 182.091 254.16 181.953 252.112 180.306C252.126 179.261 250.736 179.048 250.144 179.682C248.644 181.282 247.054 182.795 245.383 184.215L245.638 180.782C245.701 179.947 244.703 178.932 243.893 179.667C242.522 180.95 240.858 181.879 239.046 182.372C239.53 180.53 240.214 178.747 241.085 177.054C241.169 176.875 241.204 176.677 241.187 176.48C241.171 176.283 241.102 176.094 240.99 175.932C240.877 175.77 240.724 175.64 240.545 175.556C240.366 175.472 240.169 175.436 239.972 175.452L233.681 176.161C235.157 174.318 236.991 172.792 239.071 171.675C239.924 171.211 239.523 169.785 238.647 169.658C236.284 169.339 234.031 168.463 232.074 167.102C230.116 165.742 228.51 163.935 227.387 161.832L235.127 164.518C235.932 164.808 236.74 165.069 237.54 165.36C239.598 166.414 241.42 167.632 242.883 169.478C243.604 170.476 244.236 171.537 244.771 172.647C245.169 173.385 245.688 174.171 246.581 174.267C246.867 174.299 247.092 173.884 246.86 173.676C246.38 173.316 245.965 172.877 245.632 172.378C245.333 171.872 245.103 171.324 244.816 170.81C244.321 169.939 243.734 169.124 243.065 168.379C243.475 168.747 243.854 169.147 244.198 169.577C246.796 172.868 248.955 178.767 253.941 178.006C253.794 178.209 253.727 178.458 253.753 178.707C253.779 178.956 253.896 179.187 254.083 179.354C254.323 179.489 254.519 179.691 254.645 179.937C254.771 180.182 254.822 180.459 254.791 180.733L254.779 180.722Z" fill="#F6D10E"/>
<path d="M330.054 149.861C324.979 152.683 318.912 155.135 314.538 159.021C312.771 160.591 311.712 162.517 310.849 164.696C309.626 167.763 308.466 171.349 304.733 172.061C304.636 172.08 304.544 172.12 304.463 172.177C304.395 172.185 304.33 172.214 304.279 172.26C304.228 172.306 304.192 172.367 304.178 172.435C304.145 172.584 304.108 172.734 304.074 172.879C303.781 173.264 303.626 173.736 303.635 174.22C302.517 175.929 302.821 178.463 304.808 179.551C306.886 180.702 309.087 179.338 309.863 177.394C311.959 178.861 314.143 180.198 316.402 181.398C317.344 181.902 318.149 180.865 317.943 179.995C317.761 179.285 317.581 178.579 317.404 177.868C319.497 178.805 322.393 178.87 323.82 177.578C323.843 177.555 323.86 177.525 323.868 177.493C323.875 177.461 323.873 177.427 323.862 177.395C323.852 177.364 323.832 177.336 323.806 177.316C323.78 177.295 323.748 177.282 323.715 177.279L323.427 177.303C323.629 177.158 323.779 176.952 323.855 176.716C323.931 176.479 323.928 176.224 323.848 175.988C323.134 174.133 322.23 172.358 321.149 170.69L327.918 170.266C328.71 170.214 329.295 169.154 328.735 168.501C327.469 167.035 325.998 165.76 324.367 164.715C325.433 164.068 326.395 163.263 327.22 162.329C328.115 161.353 328.87 160.258 329.464 159.075C329.974 158.049 330.592 156.799 330.491 155.645C330.486 155.596 330.463 155.551 330.427 155.516C331.09 154.079 331.552 152.557 331.803 150.994C331.839 150.776 331.811 150.552 331.721 150.35C331.632 150.147 331.485 149.976 331.3 149.855C331.114 149.735 330.897 149.671 330.676 149.673C330.455 149.674 330.239 149.739 330.054 149.861ZM313.792 163.521C314.674 161.967 315.904 160.638 317.386 159.639C316.511 160.854 315.728 162.133 315.042 163.465C313.575 166.22 312.176 169.039 309.983 171.185C311.667 169.022 312.563 165.799 313.792 163.521ZM319.591 177.642C318.726 177.517 317.888 177.251 317.108 176.856L317.04 176.535C318.585 177.162 320.233 177.492 321.9 177.509C321.14 177.661 320.363 177.705 319.591 177.642ZM329.077 157.954C328.655 158.953 328.114 159.898 327.465 160.767C326.892 161.53 325.14 163.676 323.65 164.274C323.3 164.066 322.942 163.871 322.576 163.687C325.216 162.344 327.465 160.341 329.106 157.874C329.098 157.901 329.088 157.928 329.077 157.954ZM319.271 162.643C318.412 162.921 318.263 164.393 319.182 164.705C321.429 165.442 323.503 166.629 325.278 168.191L318.939 168.607C318.743 168.628 318.557 168.698 318.397 168.812C318.238 168.926 318.111 169.08 318.028 169.258C317.946 169.436 317.911 169.632 317.927 169.827C317.944 170.023 318.01 170.211 318.121 170.372C319.272 171.892 320.253 173.532 321.047 175.265C319.177 175.098 317.378 174.47 315.81 173.439C314.885 172.858 314.097 174.024 314.27 174.846C314.554 175.957 314.834 177.068 315.12 178.184C313.23 177.076 311.404 175.863 309.65 174.552C308.948 174.029 307.619 174.479 307.817 175.507C306.091 177.483 305.234 177.773 305.246 176.378C305.17 176.114 305.173 175.834 305.255 175.572C305.337 175.309 305.494 175.077 305.707 174.904C305.864 174.707 305.941 174.459 305.925 174.208C305.908 173.957 305.799 173.721 305.619 173.545C306.234 173.536 306.844 173.419 307.419 173.199C307.388 173.25 307.375 173.31 307.381 173.37C307.388 173.43 307.414 173.486 307.456 173.529C307.497 173.573 307.552 173.601 307.611 173.611C307.67 173.62 307.731 173.61 307.784 173.581C311.27 171.998 313.25 168.405 314.977 165.181C315.859 163.427 316.872 161.741 318.005 160.137C318.518 159.443 319.092 158.796 319.718 158.202C320.415 157.803 321.123 157.415 321.818 157.03L328.981 153.048C328.233 155.3 326.964 157.343 325.277 159.01C323.59 160.678 321.532 161.923 319.271 162.643Z" fill="#F6D10E"/>
</g>
<defs>
<clipPath id="clip0_3385_4224">
<rect width="1920" height="791" fill="white"/>
</clipPath>
</defs>
</svg>
